# xmcd
#
# Track frame offsets: 
#        150
#        13339
#        27927
#        42302
#        53709
#        73640
#        85829
#        96067
#        109891
#        120355
#        132629
#        145131
#
# Disc length: 2124 seconds
#
# Revision: 2
# Processed by: cddbd v1.5.2PL0 Copyright (c) Steve Scherf et al.
# Submitted via: ExactAudioCopyFreeDBPlugin 1.0
#
DISCID=a4084a0c
DTITLE=Sam and Dave - Sam and Dave:  Collectables Classics [box set]
DYEAR=2006
DGENRE=Soul
TTITLE0=I Thank You
TTITLE1=Everybody Got to Believe in Somebody
TTITLE2=These Arms of Mine
TTITLE3=Wrap it Up
TTITLE4=If I Didn't Have a Girl Like You
TTITLE5=You Don't Know What You Meant to Me
TTITLE6=Don't Turn Your Heater On
TTITLE7=Talk to the Man
TTITLE8=Love is After Me
TTITLE9=Ain't That a Lot of Love
TTITLE10=Don't Waste That Love
TTITLE11=That Lucky Old Sun
EXTD=
EXTT0=
EXTT1=
EXTT2=
EXTT3=
EXTT4=
EXTT5=
EXTT6=
EXTT7=
EXTT8=
EXTT9=
EXTT10=
EXTT11=
PLAYORDER=
